<svg xmlns="http://www.w3.org/2000/svg" width="22" height="20" viewBox="0 0 22 20">
    <g fill="none" fill-rule="evenodd" stroke="#000">
        <path stroke-width="2" d="M19.1 16.85a1.35 1.35 0 1 0-2.7 0 1.35 1.35 0 0 0 2.7 0zM9.2 16.85a1.35 1.35 0 1 0-2.7 0 1.35 1.35 0 0 0 2.7 0z"/>
        <path stroke-linecap="round" stroke-linejoin="round" stroke-width="3" d="M2 2h1.8c.9 0 1.35.45 1.8 1.8.344 1.033 1.007 5.287 1.8 7.2.243.587.45.9 1.35.9h8.55c.45 0 1.146-.382 1.35-.9C19.251 9.477 20 5.775 20 5.6c0-.45-.45-.9-.9-.9h-6.3"/>
    </g>
</svg>
