<svg xmlns="http://www.w3.org/2000/svg" width="15" height="15" viewBox="0 0 15 15">
    <path fill="#9DA3AD" fill-rule="evenodd" d="M11.844 9.292c-.308-.32-.678-.49-1.07-.49-.39 0-.763.168-1.083.487l-1 .997c-.082-.044-.165-.086-.244-.127a3.694 3.694 0 0 1-.314-.168c-.936-.595-1.788-1.37-2.605-2.373-.396-.501-.662-.922-.855-1.35.26-.237.5-.484.735-.721.088-.088.177-.18.265-.27.665-.664.665-1.526 0-2.19l-.864-.865a14.853 14.853 0 0 1-.294-.3c-.19-.197-.39-.399-.595-.59C3.613 1.03 3.245.869 2.86.869c-.386 0-.76.16-1.076.465l-.007.006L.7 2.425a2.32 2.32 0 0 0-.687 1.473c-.076.924.197 1.785.406 2.348.512 1.384 1.278 2.666 2.421 4.04a14.893 14.893 0 0 0 4.961 3.885c.728.345 1.7.754 2.786.823.066.003.137.006.2.006.73 0 1.345-.263 1.827-.785.002-.007.009-.01.012-.016.165-.199.354-.38.554-.573.136-.13.275-.266.411-.409.314-.325.479-.706.479-1.095 0-.392-.168-.77-.488-1.085l-1.738-1.745z"/>
</svg>
