<svg xmlns="http://www.w3.org/2000/svg" width="16" height="16" viewBox="0 0 16 16">
    <path fill="#212121" fill-rule="evenodd" d="M4.12 6.88C2.3 6.88.86 5.48.86 3.72.86 2 2.3.56 4.12.56 5.92.56 7.4 2 7.4 3.72c0 1.76-1.48 3.16-3.28 3.16zM1.36 15L12.26.8h2.34L3.7 15H1.36zm2.76-9.96c.74 0 1.34-.58 1.34-1.32 0-.72-.6-1.32-1.34-1.32-.74 0-1.32.6-1.32 1.32 0 .74.58 1.32 1.32 1.32zm4.5 7.06c0-1.72 1.44-3.16 3.26-3.16 1.8 0 3.26 1.44 3.26 3.16 0 1.74-1.46 3.14-3.26 3.14-1.82 0-3.26-1.4-3.26-3.14zm1.94-.02c0 .74.58 1.32 1.32 1.32.74 0 1.34-.58 1.34-1.32 0-.72-.6-1.32-1.34-1.32-.74 0-1.32.6-1.32 1.32z"/>
</svg>
