<svg xmlns="http://www.w3.org/2000/svg" width="40" height="40" viewBox="0 0 40 40">
    <g fill="none" fill-rule="evenodd">
        <path fill="#9DA3AD" fill-rule="nonzero" d="M37.846 1H3.153A2.152 2.152 0 0 0 1 3.153v34.693C1 39.036 1.965 40 3.153 40H21.83V24.897h-5.083V19.01h5.083v-4.34c0-5.037 3.075-7.781 7.569-7.781 2.154 0 4.002.16 4.54.23v5.265l-3.117.002c-2.443 0-2.914 1.161-2.914 2.865v3.757h5.83l-.763 5.886h-5.068v15.104h9.938c1.189 0 2.154-.965 2.154-2.152V3.151A2.153 2.153 0 0 0 37.846 1z"/>
        <rect width="38" height="38" x="1" y="1" stroke="#9DA3AD" stroke-width="2" rx="2"/>
    </g>
</svg>
