<svg xmlns="http://www.w3.org/2000/svg" width="48" height="48" viewBox="0 0 48 48">
    <g fill="none" fill-rule="evenodd">
        <circle cx="24" cy="24" r="22.5" stroke="#F98C48" stroke-width="3"/>
        <path fill="#F98C48" d="M9.112 29h2.716l1.148-2.1c.35-.63.616-1.246.616-1.246h.028s.266.616.616 1.246l1.148 2.1h2.73l-3.052-4.97 3.066-5.04h-2.786l-1.106 2.058c-.35.644-.616 1.288-.616 1.288h-.028s-.28-.658-.616-1.288l-1.092-2.058H9.098l3.052 5.04L9.112 29zm11.097 0h2.464l2.786-4.662c.392-.658.84-1.708.84-1.708h.028s-.112 1.078-.112 1.708V29h2.45V18.99h-2.478l-2.772 4.676c-.392.658-.84 1.708-.84 1.708h-.028s.112-1.078.112-1.708V18.99h-2.45V29zm13.66 0h2.45v-7.91h3.038v-2.1H30.83v2.1h3.038V29z"/>
    </g>
</svg>
