<svg xmlns="http://www.w3.org/2000/svg" width="40" height="40" viewBox="0 0 40 40">
    <g fill="none" fill-rule="evenodd">
        <path fill="#9DA3AD" fill-rule="nonzero" d="M5.143.322h29.714C37.677.322 40 2.589 40 5.339v28.99c0 2.75-2.323 5.017-5.143 5.017H5.143C2.323 39.346 0 37.08 0 34.33V5.339C0 2.59 2.323.322 5.143.322zm26.286 6.69c-1.263 0-2.286.998-2.286 2.23 0 1.231 1.023 2.23 2.286 2.23 1.262 0 2.285-.999 2.285-2.23 0-1.232-1.023-2.23-2.285-2.23zM20 13.702c-3.492 0-6.286 2.725-6.286 6.132 0 3.407 2.794 6.132 6.286 6.132 3.492 0 6.286-2.725 6.286-6.132 0-3.407-2.794-6.132-6.286-6.132zM3.429 21.507v12.822c0 .955.734 1.672 1.714 1.672h29.714c.98 0 1.714-.717 1.714-1.672V21.507h-7.017c-.812 4.427-4.79 7.804-9.554 7.804-4.763 0-8.742-3.377-9.554-7.804H3.43z"/>
        <rect width="38" height="38" x="1" y="1" stroke="#9DA3AD" stroke-width="2" rx="2"/>
    </g>
</svg>
