<svg xmlns="http://www.w3.org/2000/svg" width="14" height="19" viewBox="0 0 14 19">
    <path fill="#fff" fill-rule="nonzero" stroke="#212121" stroke-width="1.7" d="M12.802 12.687l-1.155-1.644a1.07 1.07 0 0 0 .508-.5 1.082 1.082 0 0 0-.088-1.144L10.44 7.094c.158-.107.28-.25.368-.43a1.082 1.082 0 0 0-.088-1.143L7.886 1.465A1.087 1.087 0 0 0 7.012 1c-.35 0-.683.179-.875.465L3.285 5.503c-.245.34-.262.769-.087 1.144.087.179.21.322.367.429L1.938 9.38c-.245.34-.262.769-.087 1.144.122.232.297.393.507.5L1.204 12.67c-.245.34-.263.769-.088 1.144.193.375.56.59.962.59H6.05l-.245 2.841a.638.638 0 0 0 .63.697h1.137a.638.638 0 0 0 .63-.697l-.245-2.841h3.971c.403 0 .77-.232.962-.59.175-.357.14-.804-.087-1.126z"/>
</svg>
