<svg xmlns="http://www.w3.org/2000/svg" width="40" height="40" viewBox="0 0 40 40">
    <g fill="none" fill-rule="evenodd">
        <path fill="#9DA3AD" fill-rule="nonzero" d="M6.164 0h27.672A6.163 6.163 0 0 1 40 6.164v27.672A6.163 6.163 0 0 1 33.836 40H6.164A6.163 6.163 0 0 1 0 33.836V6.164A6.163 6.163 0 0 1 6.164 0zm13.05 26.945h1.613s.492-.051.733-.316c.23-.245.22-.693.22-.693s-.032-2.11.973-2.416c.995-.306 2.261 2.038 3.612 2.935 1.015.683 1.79.53 1.79.53l3.612-.05s1.884-.113.994-1.56c-.073-.122-.523-1.07-2.68-3.017-2.261-2.049-1.957-1.712.764-5.25 1.655-2.15 2.325-3.465 2.115-4.025-.199-.54-1.413-.398-1.413-.398l-4.062.02s-.304-.04-.523.092c-.22.123-.356.428-.356.428s-.639 1.662-1.497 3.079c-1.812 2.986-2.534 3.15-2.827 2.966-.691-.429-.513-1.743-.513-2.67 0-2.896.45-4.108-.88-4.414-.44-.102-.764-.174-1.894-.184-1.445-.01-2.68 0-3.371.337-.46.224-.817.713-.597.744.272.03.88.163 1.193.59.42.551.398 1.795.398 1.795s.241 3.414-.555 3.832c-.544.296-1.298-.306-2.91-3.017-.827-1.386-1.445-2.925-1.445-2.925s-.115-.286-.335-.438c-.261-.184-.628-.245-.628-.245l-3.863.02s-.576.02-.795.265c-.189.214-.01.673-.01.673s3.025 6.88 6.437 10.356c3.141 3.17 6.7 2.956 6.7 2.956z"/>
        <rect width="38" height="38" x="1" y="1" stroke="#9DA3AD" stroke-width="2" rx="2"/>
    </g>
</svg>
