<svg xmlns="http://www.w3.org/2000/svg" width="40" height="40" viewBox="0 0 40 40">
    <g fill="none" fill-rule="evenodd">
        <path fill="#9DA3AD" fill-rule="nonzero" d="M17.572 29.621c0 .05 0 .11-.027.145-.182.237-.398.435-.682.54-.247.09-.444-.02-.496-.28a1.591 1.591 0 0 1-.021-.314c-.001-1.93-.006-5.884-.009-5.932h-1.409c0 .054-.002 5.562.002 6.603 0 .282.03.562.146.823.125.284.332.463.64.515.226.04.447.014.662-.06.44-.154.784-.442 1.088-.789l.107-.115v.864h1.413V27.84v-4.072l-1.414.004v5.85zM24.267 24.271c-.297-.64-.92-.81-1.46-.672a1.615 1.615 0 0 0-.812.522c-.072.083-.152.244-.152.244V20.87h-1.408v10.618h1.408v-.595l.137.146c.323.356.715.55 1.199.555.594.006 1.008-.286 1.196-.859.087-.266.116-.54.117-.818.001-1.485.001-2.969-.001-4.453 0-.41-.05-.814-.224-1.193zM23.04 29.74c0 .079-.01.16-.026.237-.065.311-.298.45-.63.382a.922.922 0 0 1-.492-.307l-.045-.06v-.117l-.004-4.715s.03-.087.097-.146c.165-.148.348-.242.576-.22.195.02.35.11.423.293.054.14.097.294.098.443.007 1.402.004 2.806.003 4.21zM19.13 15.072c.32 0 .58-.272.58-.608v-4.29c0-.336-.26-.609-.58-.609-.32 0-.58.273-.58.608v4.291c0 .336.26.608.58.608zM14.928 20.87H10v1.536h1.66v9.188h1.604v-9.191h1.664zM28.393 28.73v1.009a.635.635 0 0 1-.632.637.635.635 0 0 1-.634-.637v-1.961h2.72s.015-1.368.004-1.99a4.241 4.241 0 0 0-.078-.791c-.141-.672-.5-1.178-1.172-1.4-.197-.065-.41-.1-.617-.113-.69-.044-1.296.154-1.769.687-.414.466-.558 1.027-.56 1.635-.002 1.164-.007 2.329.004 3.492.004.297.037.6.104.888.144.62.48 1.107 1.074 1.376.433.197.891.207 1.354.139.746-.11 1.254-.512 1.5-1.237.185-.543.163-1.733.163-1.733h-1.46zm-1.266-3.269c0-.351.283-.637.634-.637.349 0 .632.286.632.637v1.1h-1.266v-1.1z"/>
        <path fill="#9DA3AD" fill-rule="nonzero" d="M1 1v38h38V1H1zm21.534 7.337h1.457v6.04c0 .08.006.162.02.24.044.25.228.366.468.283.292-.1.515-.303.704-.542.027-.034.022-.097.022-.147V8.337h1.467v7.921h-1.468l.002-.85c-.162.16-.3.308-.453.442-.27.238-.575.415-.933.485-.549.108-1.016-.066-1.191-.634a2.092 2.092 0 0 1-.095-.591V8.337zM19.2 8.14c1.16 0 2.102.941 2.102 2.102v4.113a2.102 2.102 0 1 1-4.203 0V10.24c0-1.161.94-2.102 2.101-2.102zm-5.653-2.603s.667 2.835.986 4.178c.32-1.343.987-4.178.987-4.178h1.67s-1.283 4.255-1.857 6.153a.753.753 0 0 0-.03.215v4.353h-1.54v-4.353a.757.757 0 0 0-.03-.215l-1.856-6.153h1.67zm18.365 25.26a3.578 3.578 0 0 1-3.501 3.578c-5.606.12-11.215.12-16.822 0a3.578 3.578 0 0 1-3.5-3.578V22.04a3.578 3.578 0 0 1 3.5-3.578c5.607-.12 11.216-.12 16.822 0a3.578 3.578 0 0 1 3.5 3.578v8.756z"/>
        <rect width="38" height="38" x="1" y="1" stroke="#9DA3AD" stroke-width="2" rx="2"/>
    </g>
</svg>
