<svg xmlns="http://www.w3.org/2000/svg" width="16" height="15" viewBox="0 0 16 15">
    <path fill="#9DA3AD" fill-rule="nonzero" d="M7.954 14.999c.08-.003.163-.012.241-.029.627-.136 1.113-.702 1.148-1.41.08-2.096.352-3.338 1.658-5.21a.918.918 0 0 0 .775.435h3.306A.922.922 0 0 0 16 7.87V1.29c0-.5-.416-.914-.918-.914h-3.306a.92.92 0 0 0-.763.411 4.971 4.971 0 0 0-.551-.4C10.159.209 9.817.1 9.348.053c-.936-.097-2.473-.026-6.02-.04a.374.374 0 0 0-.23.085c-.713.58-1.023 1.135-1.164 1.76a.37.37 0 0 0-.178.12c-.534.663-.727 1.43-.603 2.09a.369.369 0 0 0-.132.103c-.623.728-.75 1.66-.528 2.364-.38.449-.538.975-.482 1.462.09.618.54 1.239 1.114 1.337h4.728c-.282 1.851-.095 3.552.534 4.655.34.595.835.928 1.326 1 .082.011.16.014.24.01zm-.93-1.37c-.537-.942-.76-2.703-.396-4.593.04-.21-.146-.435-.361-.434h-5.04a.868.868 0 0 1-.487-.686c-.034-.292.086-.636.385-.96h2.02a.383.383 0 0 0 .372-.365.381.381 0 0 0-.372-.365H1.17c-.11-.404-.025-.941.339-1.462h1.636a.383.383 0 0 0 .372-.366.381.381 0 0 0-.372-.365h-1.24c-.11-.404-.025-.941.339-1.463h.9a.383.383 0 0 0 .373-.365.381.381 0 0 0-.372-.366h-.46c.114-.39.32-.69.798-1.096C6.897.754 8.48.7 9.273.783c.406.041.596.1.81.228.193.115.43.318.775.594v5.7c-1.707 2.16-2.165 3.977-2.25 6.226-.246 1.12-1.237.811-1.584.097zm8.058-5.575h-3.306a.175.175 0 0 1-.184-.183V1.29c0-.108.076-.183.184-.183h3.306c.108 0 .183.075.183.183v6.58a.175.175 0 0 1-.183.183z"/>
</svg>
