<svg xmlns="http://www.w3.org/2000/svg" width="16" height="15" viewBox="0 0 16 15">
    <path fill="#9DA3AD" fill-rule="nonzero" d="M8.046.001c-.08.003-.163.012-.241.029-.627.136-1.113.702-1.148 1.41C6.577 3.536 6.305 4.778 5 6.65a.918.918 0 0 0-.775-.435H.918A.922.922 0 0 0 0 7.13v6.58c0 .5.416.914.918.914h3.306a.92.92 0 0 0 .763-.411c.191.153.368.29.551.4.303.18.645.288 1.114.336.936.097 2.473.026 6.02.04a.374.374 0 0 0 .23-.085c.713-.58 1.023-1.135 1.164-1.76a.37.37 0 0 0 .178-.12c.534-.663.727-1.43.603-2.09a.369.369 0 0 0 .132-.103c.623-.728.75-1.66.528-2.364.38-.449.538-.975.482-1.462-.09-.618-.54-1.239-1.114-1.337h-4.728c.282-1.851.095-3.552-.534-4.655-.34-.595-.835-.928-1.326-1a1.305 1.305 0 0 0-.24-.01zm.93 1.37c.537.942.76 2.703.396 4.593-.04.21.146.435.361.434h5.04c.275.14.452.383.487.686.034.292-.086.636-.385.96h-2.02a.383.383 0 0 0-.372.365c0 .193.178.368.372.365h1.975c.11.404.025.941-.339 1.462h-1.636a.383.383 0 0 0-.372.366c0 .193.178.368.372.365h1.24c.11.404.025.941-.339 1.463h-.9a.383.383 0 0 0-.373.365c0 .193.178.368.372.366h.46c-.114.39-.32.69-.798 1.096-3.414-.011-4.997.042-5.79-.04-.406-.041-.596-.1-.81-.228-.193-.115-.43-.318-.775-.594v-5.7c1.707-2.16 2.165-3.977 2.25-6.226.246-1.12 1.237-.811 1.584-.097zM.918 6.947h3.306c.108 0 .184.076.184.183v6.58a.175.175 0 0 1-.184.183H.918a.175.175 0 0 1-.183-.183v-6.58c0-.107.075-.183.183-.183z"/>
</svg>
