<svg xmlns="http://www.w3.org/2000/svg" width="16" height="11" viewBox="0 0 16 11">
    <path fill="#9DA3AD" fill-rule="nonzero" d="M9.645.003c.06.007.117.03.166.066l6.045 4.445a.356.356 0 0 1 0 .572L9.81 9.53a.356.356 0 0 1-.566-.283V7.464c-.45-.019-1.457-.045-2.944.21-1.774.306-3.947 1.007-5.711 2.55a.356.356 0 0 1-.572-.377C1.502 5.273 6.02 3.093 9.245 2.225V.358a.356.356 0 0 1 .4-.355zm.31 1.055v1.434c0 .162-.109.303-.266.344-2.808.71-6.727 2.517-8.494 6.072C2.85 7.806 4.657 7.236 6.178 6.975c1.856-.32 3.326-.222 3.439-.217.19.009.34.166.339.356V8.54l5.088-3.738-5.088-3.745z"/>
</svg>
