<svg xmlns="http://www.w3.org/2000/svg" width="18" height="23" viewBox="0 0 18 23">
    <path fill="#E2E4E7" fill-rule="nonzero" d="M14.351.09c-2.006 0-3.648 1.669-3.648 3.708 0 .36.056.706.152 1.036L5.906 8.31a3.59 3.59 0 0 0-2.257-.804C1.642 7.507 0 9.177 0 11.216c0 2.04 1.642 3.709 3.649 3.709a3.59 3.59 0 0 0 2.265-.812l4.94 3.477c-.096.333-.151.68-.151 1.044 0 2.039 1.642 3.708 3.648 3.708 2.007 0 3.649-1.669 3.649-3.708 0-2.04-1.642-3.71-3.649-3.71a3.622 3.622 0 0 0-2.812 1.353L6.864 12.97c.279-.523.433-1.12.433-1.754a3.71 3.71 0 0 0-.44-1.754c1.708-1.106 2.96-2.208 4.682-3.307a3.622 3.622 0 0 0 2.812 1.352c2.007 0 3.649-1.67 3.649-3.709C18 1.758 16.358.09 14.351.09zm0 1.483c1.218 0 2.19.988 2.19 2.225 0 1.238-.972 2.226-2.19 2.226-1.217 0-2.189-.988-2.189-2.226 0-1.237.972-2.225 2.19-2.225zM3.65 8.991c1.217 0 2.189.987 2.189 2.225s-.972 2.225-2.19 2.225c-1.217 0-2.189-.987-2.189-2.225S2.431 8.99 3.65 8.99zm10.702 7.417c1.218 0 2.19.988 2.19 2.226 0 1.237-.972 2.225-2.19 2.225-1.217 0-2.189-.988-2.189-2.225 0-1.238.972-2.226 2.19-2.226z"/>
</svg>
